<mxfile host="65bd71144e">
    <diagram id="Tj7zrUxq3Lk5GPP8C-gC" name="Page-1">
        <mxGraphModel dx="499" dy="310" grid="1" gridSize="10" guides="1" tooltips="1" connect="1" arrows="1" fold="1" page="1" pageScale="1" pageWidth="827" pageHeight="1169" background="#000033" backgroundImage="{&quot;src&quot;:&quot;data:page/id,2VC-2woxVbjbEvooMro8&quot;}" math="0" shadow="0">
            <root>
                <mxCell id="0"/>
                <mxCell id="1" parent="0"/>
                <mxCell id="4" value="" style="edgeStyle=none;html=1;" edge="1" parent="1" source="2" target="3">
                    <mxGeometry relative="1" as="geometry"/>
                </mxCell>
                <mxCell id="2" value="Страна" style="whiteSpace=wrap;html=1;aspect=fixed;fillColor=#0050ef;fontColor=#ffffff;strokeColor=#001DBC;" vertex="1" parent="1">
                    <mxGeometry x="40" y="70" width="80" height="80" as="geometry"/>
                </mxCell>
                <mxCell id="3" value="Город" style="whiteSpace=wrap;html=1;aspect=fixed;fillColor=#0050ef;fontColor=#ffffff;strokeColor=#001DBC;" vertex="1" parent="1">
                    <mxGeometry x="150" y="70" width="80" height="80" as="geometry"/>
                </mxCell>
                <mxCell id="5" value="&lt;h1&gt;Словарь&lt;/h1&gt;&lt;div&gt;&lt;br&gt;&lt;/div&gt;" style="text;html=1;strokeColor=none;fillColor=none;spacing=5;spacingTop=-20;whiteSpace=wrap;overflow=hidden;rounded=0;" vertex="1" parent="1">
                    <mxGeometry x="40" y="20" width="120" height="40" as="geometry"/>
                </mxCell>
                <mxCell id="16" value="" style="shape=image;verticalLabelPosition=bottom;labelBackgroundColor=#ffffff;verticalAlign=top;aspect=fixed;imageAspect=0;image=data:image/png,iVBORw0KGgoAAAANSUhEUgAAAaMAAAC4CAYAAABO84MYAAAAAXNSR0IArs4c6QAAAARnQU1BAACxjwv8YQUAAAAJcEhZcwAAEnQAABJ0Ad5mH3gAABjiSURBVHhe7d1LaxtX2MDxJ+9HsCGEQLDqdexdqCzXuXjrUJNFwVGhIQsvjCHQlNZFXVe8LjTQEOOFFyGFKoYuglt7myu+QFa1s3ZlAiENcd6P4PecM2dmzlx0s+QcJ/n/QK1Go7mdGc9zLhM9Jw4UAQDAo/+x/wcAwBuCEQDAO4IRAMA7ghEAwDuCEQDAO4IRAMA7ghEAwDuCEQDAO4IRAMA7ghEAwDuCEQDAO4IRAMA7ghEAwDuCEQDAO4IRAMA7ghEAwDuCEQDAO4IRAMA7ghEAwDuCEQDAO4IRAMA7ghEAwLuug9HOwpgUR+3ru1XZt58DANCu7oLR9oJMy6JsrT9TrxWpyLxMLLywMwEAaE93wWh4VrZmz9qJPhkdHxHZrdM6AgB0hDEjAIB3vQtGb1bl5+qmlK9dln77EQAA7ehRMHoht6/Mi1RW5Maw/QgAgDb1IBipQDQ6I7Xyotya6LOfAQDQvi6DURyI4gcZAADozIkDxb7v2P7aDzJR3bRTsfLiM7rrAABt6yoYAQDQCzzaDQDwjmAEAPCOYAQA8I5gBADwjmAEAPCOYAQA8I5gBADwjmAEAPCOYAQA8I5gBADw7iMIRvrHWsek+N0qGWY/Gfqc/yB/vbGT8Oid/PXdmNzetpNHzv69mxfXwMeku2C0vWAvio/w4rDHFv+RBX90H0vQ21lwz5t+LciOndcuvY6ba+/sFAL2OkmUJ8EzpH9cOfE3lPk7a+Ws3Fh/Jlvri1K2n+Dj0H3LqDgna+bieCZrFZHqlc5vat2xF+evvc0wu/9yT0rFEam/tDfbNxvyWEakFEx9HHTqj+jc7cn0IQIS8pWKe/LovbUWPlQqSM8s8yv/MHraTdd/ZsC+C5ha0MILO6W8WZWbqRue+Y5TQ0/XkJrNT8xztxMJa6n21WmrZvy8FB5umGX2n+/JxWvnRbb25FUw1x6Ps/7MPrhdCuqV2X5q/9otm5xyNHQt85Att/6Jb1RNczlxA01uP95e+Pl0TWSjOhl/J3H8qWNLlU3YqnK3kTz3rcpOee2Uf2J+tiWSaMVF5edsI7X+dNmbV+41lq+grp36vcbnItkydfc12Ke8sog/S5WNeWXXEc1LHVvLsu/oup6U6pb9uEM7CzNSz8sOnepxSZZFc+aY3P3N+VtJln3wclv4yXNPi/a90SkkDu2fOwef3/z74K2d3L7zRWL67er3B5/f2bFTyn9/H3xbunOwbScz02mt5luZ7VhvV+8crPxnJw72D1ZufnHw7eq+nW5Or1N/d/vO92odatk76rgS+7Nz8Fvpi4Pf/jETSjDtrl+XR+PtBfuTt9+GLlv32M203hc9obcVvnekzkcz5lwltp06ntT2TRmn1t3s+JLrz5a9ma+2F34nvf7mZRfsa7x/6fVnyyexPnMe9fJueTrHbubHy5t9bbNcw33R6wquHf1Zcn/Sx2qmnbJOlp2S+jtIzLfHEl+H6bLIXmdm+YZlnyoLO51eX3o6/n5z0bb09eUeY0Rtz/08/XcQSZZpyKzfXT5Vdsn1ZctGf/+36Niy5wpHp/uW0da8TNhaxLQsHqK7LFkbz2o1v7H+iVn58qSdkD4ZHR+RjXrUrmnqVT1IGjg0NiCP/7wv9UIpcVz7a79LrTgnX0e1urNyY3FKNmxLKpSejmzfVzXKKVnKzZCrWhX3lqVUuSpD9hMZnpWl8qY8fq5rcKelUAw+dmt+umtRBguH6q7UtVT3eHae6e6T2Wj7puW09VTW26olvpBHNffY+uTLa9myMV289jv9585LyW11Kg3LzhiRyoNw/+y5bfr9rPLiL/b6OCuXyhJ1ye4/fyobxfMyaq+dobGpZIu4Tfraqf6ZbVX8Ud2U8rX476R/4kepFOPrfOirOSnVnsQtUbU/El0LumzVvo/Zsj1ZkovqWoi6k+11dX2iL5jWZT+XXJ/RoOxbXtd6/TInP0XrPwR9z5iRBte+2p77+fAF1WLfk3971DrR17WULySuG9mtx9fNyctywzm2vOsSR6N3Y0bqgpX0Bd+KOvG31HK1GdskTnfFtJrfSqq7IS8rbUvqj6FQ25PCOXWBnixIwX5stLjxD82uSEXiYO12N5jAURxQYaWxwplGf/B98tngptRf6xuV2jd1Iw3/WEuFZmtMqc1EZTO9q85jVJF4J//u6tlx2RV1enkzrw1v6lJXlYjpaFn1mlE3gZTSuBPg9blej4Nfs7LLk+4ibm1KLjndQ0Ozz+SWvQmZdTmBN3kD68DwVans5v1NjEjhlH2bxwSYMDi9k/WHIhf19WcEFZHaMxvk9Fjm1ogzX2lxXWnNyv6wFZq2qXvGkh6jbNDtmexG6+C6a8Ppggo+0X1Kl+1msix0RdDtXr4yLxt2Do5W78aM9B+e+gO62+nTVarGHw6iLw2qm0864LSa39ALua0uJKmsRMuvVdSF2IEgGOgHJMIatObU0twalWICTIKqlf4abHvrwZzU1c09vKm2c/OMartGECBC+o+q/vKFuVFd+mpA6qrFpFtzjQNYDucBhrwWrR5Yjuabl1sOraiWUWJZ9eqo1dy47PJ00yrMODUgJdmU6pXghjSdaOV1Qte899TfRN1Oh4KKROyV1BPjLkGN3QQc8+BM3EoLKiLqf2FFwlzjPybPS7om/3qvsxtqy+u6e6d1a3B3JvM0ph6vMeUdXTe9fWou+LsLK0qTmVbezkLwWfhQlr72PqqHlo6xHj7AYLtiqveTNcHowg6CQ7M/ClNraaLV/DzRzVm1kn4+TMuogaD5Pi9/RDfIbPdLQrpVpbsf1PI/5wZv2+3klmWm+0VTLZBBVWNX65aH9+XRbosad9vszXAm5yEJhz4fuV1jtmbfqObbsXTZZdiyD7uujPiGH9zggvft2PkzWYnZclsNHdLdm4WHT9WZCgVdgjXn4YZs15i9vtTfzs7zp1Jwryl1Hd9N3KzjFp1hurXcSmFOl28TLa9rHajdVqO+eR/qAQZd2ViUQnUyW8lwWnam+9i+b1vDe05QFolKVl4FKarUqO/P0zJ6b+zY0eFkBszTA4J2Wg+Wlr4/WPknOZgYDNyG8/XLGWhUms931+28nMHI5PJ3DlbSg5sNNRqUTQ2a2sHjcBvxoK4WDPzG20/P19LfaXb8qcFaMxAb72MwKJ1cvpnMIHmOTPlnBnJT5yCxvuz5cY9fbz9bHqFWZZednzlXtnzMS+1XYnvpQe201HkNXu2WbfbaCc5N8vwFnzVfd/Cd7LzkssGrafmkznOiLPI0va6T14Wep9fX8QMMdjo8T/E2kvv+7erfatopO/e8Ri+3bN3rTn2euufkLu/uT+rYf1Pbb3qtoGdO6P8IgIges7hbWEm0OPRn5gGdQ3XX9ZAeB72yJ9fd1pr57KlcfNBJN+qnSI8HTUr9mvvvmoLPHo8nzzfev57+OyPgw5ccmwsET7B19HDIUckZ/zFP/8mAfEYgaiE9NqeYB0CaPSyE94WWEZBmWhrJsYJS5fjUnE0rLTGQoseQDj+u9UnR/6A29WQnvwBxPBCMAADe0U0HAPCOYAQA8I5gBADwjmAEAPCOYAQA8I5gBADwjmAEAPCOYAQA8O5Ig5FJ39tpDqKO2RTIR76dQ9L/ml/vX69+wfqTEJzTVjmMesaco+a/UA7gaHURjPQPDCZzx+d/9pEyNzA3P74Nisci6Nh9cV8egrX+2Rp/10KqDKgMAMfaR9BNp5PfNchL8h6ZvCs6WV36V51NFk21fx5+7TnO22Kzph7X1mPP6UA0IxId/6KUa9lEbgCOj/cajMJ0wlH3i/7RQn2DDLuycmqwpqsvnJdoiaTmZWq+upWmv+/WkNNdMUFLrvE62qSOw6TtTgWc8Hj1K/dGqI8/3Hbi2Hrd6gwSmelkfnHStOT+5ZWt3pb7nWS3WeOyC8+L/jHPjepk7ncyyzfrJguvjzaDqUlWpyoG8Y9fqgrL4lQyEaBb9nlJHxueGysxP3tektdttsux2XUNfJL0D6UeTpDEKpl4K/mZm0jLJARLJ2eLEl3Z5FUmsZWTKEtN/+asP5OYyzKfZxLFhUm2wvVl99fsU7Rc3vE0Ee2rTgbWPPlWbjKz9LGasojXkz1WvR3n+00FCcqSCc8an5toOr19tY5G32+n7HKP2zLry5yzkLP/NtlZu8nbtJblnS57M+2cwxbnpuW5SK8vTc1v57oGPiXvpWW0rmrXpuWQ25U2IpUH9ufvTbrqOF207uK64fxsf5ASOZXfv4XyYphwzKbyrodL6xw1U7IUtWZs2vS8NNoNbUr1iu4O6vzn+3UOGqn8GCdDG74qleKyPLI1aJ2uuuykd5btJ6q2/00XydP65LNB+1YdezpFev/Ej4ntG6p1EaZNSJZ9L8pOqT1p/tDAS9UiUq2WQkc/8R/kI8rkp3FSlwdpxZ2yT2l1bgKb8vh5s1Zq+vuOHlzXwMfm6IPR1rxUdWKy8VL+mE7xvIxGNwXdnZTOwhh3deR2pxzWm7rU1Q1jOuoqUa9UnpPWVCBdnJP6TOdPYr2qbya7sEYnpZpI/HVWLpXjG97Os2Upj3Uz7pROGjcihVP2bad6UHb9E7/IUjleR173Y62qz/eUXOoo10wQdOsvU+sz+9xeArp2zs2NB3Mi0XdS51+PEy5OSW3GLp/pXjzC6xr4QHURjNyadlKiVlpULSL7h9vpo7o7C+omIGp5MwitXmo9JTuvN3RSsnCQ2746fRDi1GX5qbIn04d4OEAnbEtsW73cFsDQWNjaCFoind2UUzIZLZ0WqJGTBbOp7stuaDZcdlEK6vpIByT9AIYJWB2W7emC2wK2dIbU4oC0m6u11bmJHkxRrzV9/tMBaXg2Wm5pMPnwyNFf18CHp6uWkfmjTwwK31c1yJybZlRTPMRA7WDB3uBUbXK+hzVI0yWobnSHfWjBYWr5+obTwbpMoKn+b/PyGL4gZd19s/1E6pWrXWTyfCG3de07GtTXrS7V8rgX3yDNoL+qOHzdTsBrs+wy10dDp6VQtG9Thmbtk4AdlK3p9qrNOJUfdfyq5RZ2Syb3y5aNeR9o69w4+s8M2Hf59PYyjuq6Bj5QXQWj6CYcdjfM7MXjP2mqprhWUQ2kK+0/ETb0laoxqptK0J0xKfVxtwYZd3VMVDfVndV+r+2blu4SVDe63XD9wavdfUsbmg0eH467ZOKn+NynyqL165rz4oApj3j76e6+s/K1rnWrcr14LjUG0oaom2h0RgUzVdN3nvbTrRL33E1UB2Sp7ZZNe2VnxqF0IAm/E52bVDeV7gYbjMenkvS2bNk2e+LOpSs/qrVRd45fP+YdtmyS+/W7FB6o9QezAq3OTepJuvR1n36SLl22za9r4NNE2nEAgHfv5Wk6AACaIRgBALwjGAEAvCMYAQC8IxgBALwjGAEAvCMYAQC8IxgBALwjGAEAvCMYAQC8IxgBALwjGAEAvOvuh1LfBJk4o5+/17mLOs0HBAD45PX0V7t3dHpxWUykKgAAoJWedtPlJhEDAKCFHgajd7L+cFPKY7SKAACd6b6bTme9nFkO3jNmBAA4hN5mejWBSWRpvUHqcQAAcvT20e7hC1KWPfn3jZ0GAKANPQ1G+2u/S614XkZP2g8AAGhDd9107niRxpgRAOAQejtmBADAIfBzQAAA7whGAADvCEYAAO8IRgAA7whGAADvCEYAAO8IRgAA7whGAADvCEYAAO8IRgAA795vMNK/ZffdquzbSQAAtO6DkQ4wo2PR6/a2/RwAgDZ1F4yiZHrPZEu/FqekNvOD/EU+IwBAB7oIRu/kr3vLUl50sroOz8pSeVMeP39nP9A5jn6IW05uugkrMX90QXbs56Hk/HTLS+3Dd/G87PKp+XQRAsDxpFNIHM7OwW+l7w9W/rOT1tvV7w8+v/n3wVs98c+dg89Ldw62zRxFT4fztNT8xLLaf38ffOsun2K+f2fHTmW9Xb3j7N/+wcrNLw6+Xd230wCA4+LwLaM3danLgHyWyuraf2bAvstpOaXsPEvO75/4RspbT2U90c23LI+ajUPVnmRaU6H+iVn5Mtq/PhkdH5GN+is7DQA4Lg4fjE4WpCB78m9qfGj/5Z7IYKGNbK/v5N9dFUtmnG600Rmp2bnGyctyy4xD5Xez9U/8IkvlZZm2y99ci7sHjTercjNa95hMVDftDADAcdLFmNFpKRQ3pf7aTlqv6ptSKpy2U62VF+3DD9HrF6c1owzPRvOWBudlIhWQhmbD5RalUJ10AtILuX1lXqSyEi2/Vhmx8wAAx0kXwSjo9qrNOA8NbC/IdG1Krk/0qYk++WxQtXyevQjm6VZK4gGGnOVbOF1oFkx0cLRvHYUzel8Utf2faRkBwLF0Qg8c2feHop92i7u/pmRp3R0jUq2TqOtNzXswIHdVY+WnXy9H3XjJ5ZXinKzZ+Zl5ifXrJ+UmpbplJgLlRdmaPWsnsvtWqexJtf5N4jsAAP+6DkYAAHSri246AAB6g2AEAPCOYAQA8I5gBADwjmAEAPCOYAQA8I5gBADwjmAEAPCOYAQA8I5gBADwjmAEAPCOYAQA8K6rYLSzoJPWOSkgbDK7TJI7AACa6CIY6UytI1Iqxtle958/FSmSwA4A0Jmuu+kujg/I4+e6JfRO1uvn5fq4yEb9VTBTCVpP4esH+SudpnztB2f+mNzetjMiOieSs45EptfG8/R2sy00nQMpbxsAAJ+6HzM6d0EKDzdk/82G1AslcROO60AzvTsna1Hab5HqlWS33s/VAVmy8/XrxrCdZwTJ+epO6vCtKDGfDizuvBWpyLxMLASZZXVWWDcoAgCOry6C0SupmyyrZ+XS4FP54889KZyzKb6NF/JHdVPK1+Ksrv0TP0qluCyPEi2T9HRsf+13qRXn5CeTxjxl+75Ut8IU51qffDk3J6XaExPs+s8MBB8rcStJ7/OIFE4FnwMAjofuW0bK0NiA1HYHZPRkMgiItLjxn7wstxanpDaT1wWnQkd9U2SwEAWzjOJAoiWWcGpASrt1tb4X8kimpBC1kgbkM7WfAIDjo8tgZG/sw7NO95ligoC2KfXX5o0VtqYcelnbBbc0OC8TTkDSXW1Nbe2pNTpe78mGfSsnC1LQ87efSL1wVS6JajG9qUu9WQADAHjRk5ZRvrNyqSxSuxcHl7Db7evEuFAsHXz6z52XUm0m/4GD4QtSlmW5Gz2k8E7+urcspcpVGbKfaP++FLl4rk+te08e/amCVbOWFgDAixMHin3fGf1viq7syfX12cTNX7YXpHhvQNZsS0mP10zXglkiU7LkfF8/4DBR3bRTWnK+YbYzH7d4VDAL1x0+4BCtvrwoW7Nn7YR+wGFSqmK/b9cjlRW5lTcGBQDw5vDBCACAHjnCbjoAANpDMAIAeEcwAgB4RzACAHhHMAIAeEcwAgB4RzACAHhHMAIAeEcwAgB4RzACAHhHMGobWWIB4Kh0FYyClOJuKnFu2ACAznXdMioVRR4/D9M4AADQue676cbPS6F636T6zhO0nsKX24rS6R/SrajsZ8nlg1eQQlwLvh/NS2WKDdON61QV4Xfyttdo+eT8SammEwMCAHqiB2NGJfm6siePcrrmdBCY3p2TNZvJda0iUr2yYAOXTb737IWZMnQmVpmSS2Hyve0Fma7pHEd6+RWpqFaYzlkU5CPSXYIzUq+s2Eyxar7My8SCsz5lozopE/Vv7PZHnGR/rZbPma+3DwDouZ48wKAzstadjK6BF/JHdVPK1+J05P0TP6ob+nIUuIa+mpNS7UnUqtp//lTEydS682xZBZ8LdrpPRsdH4pTm2/dVS2VKrkeJ8vrky7nk+gydjM8m3DOZY8NU5a2W1/NlTn4iER8AHLmeBCM5eVmuDz6V9agLLjQihVP2bZ6TJbkYBad3sv4wSBEeMmnIo+Ci529KabwUpw0vDshp+7aRxPfVft5yM8m2sTwA4Oj1JhgpQ2MDUv0zSg5ubUr9tX1rvJJ6YtwlaO2Yrro3G/JYzsvoSTtL6T8zoP67LNPhmE26pRK2ckKv9+L05O3odnkAQE/0LBjJ8FWp7D5VASVkx4Sc7rv9td+lVpyTr8MxIcV0ne3WZef5Uyk4XXpmzObespQXg/Em8/rVmT98QcoqUN2NHmYIvl9yuvmaarX8qQEpbcWtvZ0FHmAAgKNy4kCx7zumn1a7W1ixDxQEDyxM6HEiFUBu2ICjvzNdC96L6IcRnG4yK/hOzrztBSnOLNsJS48BRUFJP+02I9Hqy4uyZceHtPT+ZTVfPjwerVRZkev1SXk0Fh8bAKA3ugpGR0s/zTYp9WvuzT/47PF4swADAPjQ9K6brufS40uKHldSnxXOEIgA4GNyjFtGSk43ndsFCAD4OBzvYAQA+CQc4246AMCngmAEAPCOYAQA8I5gBADwjmAEAPCOYAQA8I5gBADwjmAEAPCOYAQA8I5gBADwjmAEAPCOYAQA8I5gBADwjmAEAPCOYAQA8O7E23f/Rz4jAIBXJNcDAHhHNx0AwDuCEQDAM5H/B/W4bwdxk8uPAAAAAElFTkSuQmCC;" vertex="1" parent="1">
                    <mxGeometry x="40" y="160" width="318.81" height="140" as="geometry"/>
                </mxCell>
            </root>
        </mxGraphModel>
    </diagram>
    <diagram id="2VC-2woxVbjbEvooMro8" name="Page-2">
        <mxGraphModel dx="1146" dy="310" grid="1" gridSize="10" guides="1" tooltips="1" connect="1" arrows="1" fold="1" page="1" pageScale="1" pageWidth="850" pageHeight="1100" math="0" shadow="0">
            <root>
                <mxCell id="_rZKdHImwKYoWpOcREMk-0"/>
                <mxCell id="_rZKdHImwKYoWpOcREMk-1" parent="_rZKdHImwKYoWpOcREMk-0"/>
            </root>
        </mxGraphModel>
    </diagram>
</mxfile>